<svg xmlns="http://www.w3.org/2000/svg" width="181" height="60" viewBox="0 0 181 60" fill="none">
    <g clip-path="url(#clip0_6612_44539)">
        <path d="M172.391 0.394775H8.28189C4.02887 0.394775 0.601318 4.10047 0.601318 8.68549V51.3234C0.601318 55.8995 4.02887 59.6142 8.25498 59.6142H172.391C176.626 59.6142 180.054 55.8995 180.054 51.3234V8.68549C180.054 4.10047 176.626 0.394775 172.391 0.394775V0.394775Z"
              fill="#666666"/>
        <path fill-rule="evenodd" clip-rule="evenodd"
              d="M39.1477 30.3006C39.1484 31.598 39.5308 32.8665 40.2471 33.9482C40.9635 35.0299 41.9822 35.877 43.1764 36.384C42.7071 37.9082 42.0017 39.3494 41.0858 40.655C39.8476 42.5034 38.5555 44.3069 36.5008 44.3427C34.4461 44.3786 33.809 43.1673 31.5479 43.1673C29.2868 43.1673 28.5241 44.3069 26.613 44.3876C24.7018 44.4684 23.1585 42.4136 21.8754 40.5832C19.3272 36.8416 17.3353 30.0493 20.0001 25.4195C20.6161 24.3118 21.5085 23.3825 22.5903 22.722C23.6721 22.0616 24.9065 21.6926 26.1733 21.651C28.1293 21.6061 29.9508 22.9789 31.1531 22.9789C32.3554 22.9789 34.5807 21.3459 36.8956 21.5881C37.9776 21.6268 39.0358 21.916 39.9871 22.4329C40.9383 22.9498 41.7567 23.6803 42.3779 24.5671C41.4023 25.1757 40.5953 26.0197 40.0309 27.0215C39.4665 28.0233 39.1628 29.1508 39.1477 30.3006V30.3006ZM35.3792 19.1207C34.8426 19.7925 34.1593 20.3327 33.3816 20.6997C32.604 21.0668 31.7527 21.251 30.8929 21.2382C30.842 20.3952 30.9585 19.5505 31.2357 18.7528C31.5129 17.9551 31.9453 17.2202 32.508 16.5904C33.6413 15.2973 35.2213 14.4801 36.9315 14.3024C37.0634 16.0481 36.5098 17.7765 35.3882 19.1207H35.3792Z"
              fill="#FFFFFD"/>
        <path d="M61.6997 36.8138L59.522 30.4759L57.2075 36.8138H61.6997ZM58.5063 28.347H60.7036L65.9087 42.6927H63.7798L62.3247 38.3958H56.6509L55.0981 42.6927H53.106L58.5063 28.347ZM71.856 41.511C72.6763 41.511 73.3566 41.1693 73.897 40.4857C74.4438 39.7956 74.7173 38.7669 74.7173 37.3997C74.7173 36.5664 74.5968 35.8502 74.356 35.2513C73.9002 34.0989 73.0669 33.5228 71.856 33.5228C70.6385 33.5228 69.8052 34.1315 69.356 35.3489C69.1151 36 68.9946 36.8268 68.9946 37.8294C68.9946 38.6367 69.1151 39.3235 69.356 39.89C69.8117 40.9707 70.645 41.511 71.856 41.511ZM67.3052 32.2825H69.0142V33.6693C69.3657 33.194 69.7498 32.8262 70.1665 32.5657C70.759 32.1751 71.4556 31.9798 72.2563 31.9798C73.4412 31.9798 74.4471 32.4355 75.2739 33.347C76.1007 34.2519 76.5142 35.5475 76.5142 37.2337C76.5142 39.5123 75.9185 41.14 74.7271 42.1165C73.9718 42.735 73.0929 43.0443 72.0903 43.0443C71.3026 43.0443 70.6418 42.8717 70.1079 42.5267C69.7954 42.3314 69.4471 41.9961 69.063 41.5208V46.8626H67.3052V32.2825ZM82.9888 41.511C83.8091 41.511 84.4894 41.1693 85.0298 40.4857C85.5767 39.7956 85.8501 38.7669 85.8501 37.3997C85.8501 36.5664 85.7297 35.8502 85.4888 35.2513C85.033 34.0989 84.1997 33.5228 82.9888 33.5228C81.7713 33.5228 80.938 34.1315 80.4888 35.3489C80.2479 36 80.1274 36.8268 80.1274 37.8294C80.1274 38.6367 80.2479 39.3235 80.4888 39.89C80.9445 40.9707 81.7778 41.511 82.9888 41.511ZM78.438 32.2825H80.147V33.6693C80.4985 33.194 80.8826 32.8262 81.2993 32.5657C81.8918 32.1751 82.5884 31.9798 83.3892 31.9798C84.5741 31.9798 85.5799 32.4355 86.4067 33.347C87.2336 34.2519 87.647 35.5475 87.647 37.2337C87.647 39.5123 87.0513 41.14 85.8599 42.1165C85.1047 42.735 84.2257 43.0443 83.2231 43.0443C82.4354 43.0443 81.7746 42.8717 81.2407 42.5267C80.9282 42.3314 80.5799 41.9961 80.1958 41.5208V46.8626H78.438V32.2825ZM96.7778 38.0638C96.8234 38.8776 97.0155 39.5384 97.354 40.0462C97.9985 40.9967 99.1346 41.472 100.762 41.472C101.491 41.472 102.155 41.3678 102.754 41.1595C103.913 40.7558 104.493 40.0332 104.493 38.9915C104.493 38.2103 104.249 37.6536 103.76 37.3216C103.265 36.9961 102.491 36.7129 101.436 36.472L99.4927 36.0325C98.2231 35.7461 97.3247 35.4303 96.7974 35.0853C95.8859 34.4863 95.4302 33.5911 95.4302 32.3997C95.4302 31.1107 95.8761 30.0527 96.7681 29.2259C97.66 28.3991 98.923 27.9857 100.557 27.9857C102.061 27.9857 103.337 28.3502 104.385 29.0794C105.44 29.8021 105.967 30.9609 105.967 32.556H104.141C104.043 31.7877 103.835 31.1985 103.516 30.7884C102.924 30.0397 101.918 29.6653 100.499 29.6653C99.3527 29.6653 98.5291 29.9062 98.0278 30.388C97.5265 30.8698 97.2759 31.4297 97.2759 32.0677C97.2759 32.7708 97.5688 33.2851 98.1548 33.6107C98.5389 33.819 99.408 34.0794 100.762 34.3919L102.774 34.8509C103.744 35.0722 104.493 35.375 105.02 35.7591C105.931 36.4297 106.387 37.403 106.387 38.679C106.387 40.2676 105.808 41.4036 104.649 42.0872C103.497 42.7708 102.155 43.1126 100.625 43.1126C98.8416 43.1126 97.4451 42.6569 96.436 41.7454C95.4269 40.8405 94.9321 39.6133 94.9517 38.0638H96.7778ZM108.965 29.3138H110.743V32.2337H112.413V33.6693H110.743V40.4954C110.743 40.86 110.866 41.1041 111.114 41.2278C111.25 41.2995 111.478 41.3353 111.797 41.3353C111.882 41.3353 111.973 41.3353 112.071 41.3353C112.168 41.3288 112.282 41.319 112.413 41.306V42.6927C112.211 42.7513 111.999 42.7936 111.778 42.8196C111.563 42.8457 111.329 42.8587 111.075 42.8587C110.254 42.8587 109.698 42.6504 109.405 42.2337C109.112 41.8105 108.965 41.2637 108.965 40.5931V33.6693H107.549V32.2337H108.965V29.3138ZM118.331 41.5599C119.496 41.5599 120.293 41.1204 120.723 40.2415C121.159 39.3561 121.377 38.373 121.377 37.2923C121.377 36.3157 121.221 35.5215 120.909 34.9095C120.414 33.9459 119.561 33.4642 118.35 33.4642C117.276 33.4642 116.495 33.8743 116.006 34.6946C115.518 35.515 115.274 36.5045 115.274 37.6634C115.274 38.7767 115.518 39.7044 116.006 40.4466C116.495 41.1888 117.269 41.5599 118.331 41.5599ZM118.399 31.931C119.747 31.931 120.886 32.3802 121.817 33.2786C122.748 34.1771 123.213 35.4987 123.213 37.2435C123.213 38.9297 122.803 40.3229 121.983 41.4232C121.163 42.5234 119.89 43.0735 118.165 43.0735C116.726 43.0735 115.583 42.5885 114.737 41.6185C113.89 40.6419 113.467 39.3333 113.467 37.6927C113.467 35.9349 113.913 34.5351 114.805 33.4935C115.697 32.4518 116.895 31.931 118.399 31.931ZM125.362 32.2337H127.032V34.0403C127.168 33.6888 127.504 33.2623 128.038 32.761C128.571 32.2532 129.187 31.9993 129.883 31.9993C129.916 31.9993 129.971 32.0026 130.049 32.0091C130.127 32.0156 130.261 32.0286 130.45 32.0482V33.9036C130.346 33.8841 130.248 33.8711 130.157 33.8646C130.072 33.8581 129.978 33.8548 129.874 33.8548C128.988 33.8548 128.308 34.1413 127.833 34.7142C127.357 35.2806 127.12 35.9349 127.12 36.6771V42.6927H125.362V32.2337ZM136.329 31.9993C137.071 31.9993 137.79 32.1751 138.487 32.5267C139.183 32.8717 139.714 33.3209 140.079 33.8743C140.43 34.4017 140.665 35.0169 140.782 35.72C140.886 36.2018 140.938 36.97 140.938 38.0247H133.272C133.305 39.0859 133.555 39.9388 134.024 40.5833C134.493 41.2213 135.219 41.5403 136.202 41.5403C137.12 41.5403 137.852 41.2376 138.399 40.6321C138.711 40.2806 138.933 39.8737 139.063 39.4114H140.792C140.746 39.7956 140.593 40.2252 140.333 40.7005C140.079 41.1693 139.792 41.5534 139.473 41.8528C138.939 42.3737 138.278 42.7252 137.491 42.9075C137.068 43.0117 136.589 43.0638 136.055 43.0638C134.753 43.0638 133.65 42.5918 132.745 41.6478C131.84 40.6972 131.387 39.3691 131.387 37.6634C131.387 35.9837 131.843 34.6198 132.754 33.5716C133.666 32.5234 134.857 31.9993 136.329 31.9993ZM139.131 36.6282C139.06 35.8665 138.894 35.2578 138.633 34.8021C138.152 33.9557 137.347 33.5325 136.221 33.5325C135.414 33.5325 134.737 33.8255 134.19 34.4114C133.643 34.9909 133.353 35.7298 133.321 36.6282H139.131Z"
              fill="white"/>
        <path d="M59.1779 20.701C59.6053 20.701 59.9565 20.6566 60.2316 20.5677C60.7225 20.4027 61.1245 20.0853 61.4376 19.6156C61.6873 19.239 61.8671 18.7566 61.9772 18.1683C62.0406 17.8171 62.0724 17.4913 62.0724 17.1908C62.0724 16.0355 61.8418 15.1384 61.3805 14.4994C60.9235 13.8604 60.185 13.5409 59.1652 13.5409H56.9244V20.701H59.1779ZM55.6549 12.4554H59.4318C60.714 12.4554 61.7085 12.9104 62.4152 13.8202C63.0457 14.6412 63.361 15.6927 63.361 16.975C63.361 17.9652 63.1748 18.8602 62.8024 19.66C62.1464 21.0734 61.0187 21.7802 59.4191 21.7802H55.6549V12.4554ZM67.5377 21.0438C68.2952 21.0438 68.8136 20.7582 69.0929 20.1869C69.3764 19.6114 69.5182 18.9724 69.5182 18.2699C69.5182 17.6351 69.4166 17.1189 69.2135 16.7211C68.8919 16.0948 68.3375 15.7816 67.5504 15.7816C66.8522 15.7816 66.3444 16.0482 66.027 16.5814C65.7096 17.1146 65.5509 17.7579 65.5509 18.5111C65.5509 19.2347 65.7096 19.8378 66.027 20.3202C66.3444 20.8026 66.8479 21.0438 67.5377 21.0438ZM67.5822 14.785C68.4581 14.785 69.1987 15.077 69.8038 15.661C70.409 16.245 70.7115 17.104 70.7115 18.2382C70.7115 19.3342 70.4449 20.2398 69.9117 20.955C69.3785 21.6701 68.5512 22.0277 67.4298 22.0277C66.4946 22.0277 65.7519 21.7124 65.2018 21.0819C64.6517 20.4471 64.3766 19.5966 64.3766 18.5302C64.3766 17.3876 64.6665 16.4777 65.2462 15.8007C65.826 15.1236 66.6046 14.785 67.5822 14.785ZM72.6031 14.9818L73.9108 20.3392L75.2374 14.9818H76.5197L77.8527 20.3075L79.2428 14.9818H80.3854L78.4113 21.7802H77.2242L75.8405 16.5179L74.5011 21.7802H73.3141L71.3527 14.9818H72.6031ZM81.4708 14.9818H82.5563V15.9467C82.8779 15.5489 83.2185 15.2632 83.5782 15.0897C83.9379 14.9162 84.3378 14.8295 84.778 14.8295C85.7428 14.8295 86.3945 15.1659 86.733 15.8387C86.9192 16.2069 87.0123 16.7338 87.0123 17.4193V21.7802H85.8507V17.4955C85.8507 17.0808 85.7893 16.7465 85.6666 16.4926C85.4635 16.0694 85.0953 15.8578 84.5621 15.8578C84.2913 15.8578 84.0691 15.8853 83.8956 15.9403C83.5825 16.0334 83.3074 16.2196 83.0704 16.4989C82.88 16.7232 82.7552 16.9559 82.6959 17.1971C82.6409 17.4341 82.6134 17.7748 82.6134 18.2191V21.7802H81.4708V14.9818ZM88.7389 12.4554H89.8815V21.7802H88.7389V12.4554ZM94.2994 21.0438C95.0569 21.0438 95.5753 20.7582 95.8546 20.1869C96.1381 19.6114 96.2799 18.9724 96.2799 18.2699C96.2799 17.6351 96.1783 17.1189 95.9752 16.7211C95.6536 16.0948 95.0992 15.7816 94.3121 15.7816C93.6139 15.7816 93.1061 16.0482 92.7887 16.5814C92.4713 17.1146 92.3126 17.7579 92.3126 18.5111C92.3126 19.2347 92.4713 19.8378 92.7887 20.3202C93.1061 20.8026 93.6097 21.0438 94.2994 21.0438ZM94.3439 14.785C95.2198 14.785 95.9604 15.077 96.5656 15.661C97.1707 16.245 97.4733 17.104 97.4733 18.2382C97.4733 19.3342 97.2067 20.2398 96.6735 20.955C96.1403 21.6701 95.3129 22.0277 94.1915 22.0277C93.2563 22.0277 92.5136 21.7124 91.9635 21.0819C91.4134 20.4471 91.1383 19.5966 91.1383 18.5302C91.1383 17.3876 91.4282 16.4777 92.0079 15.8007C92.5877 15.1236 93.3663 14.785 94.3439 14.785ZM99.714 19.9711C99.714 20.3011 99.8346 20.5614 100.076 20.7518C100.317 20.9423 100.603 21.0375 100.933 21.0375C101.335 21.0375 101.724 20.9444 102.101 20.7582C102.735 20.4493 103.053 19.9436 103.053 19.2411V18.3207C102.913 18.4095 102.733 18.4836 102.513 18.5428C102.293 18.6021 102.077 18.6444 101.866 18.6698L101.174 18.7587C100.759 18.8137 100.448 18.9004 100.241 19.0189C99.8896 19.2178 99.714 19.5352 99.714 19.9711ZM102.482 17.6605C102.744 17.6267 102.92 17.5166 103.008 17.3304C103.059 17.2289 103.085 17.0829 103.085 16.8925C103.085 16.5031 102.945 16.2217 102.666 16.0482C102.391 15.8705 101.995 15.7816 101.479 15.7816C100.882 15.7816 100.459 15.9424 100.209 16.264C100.069 16.4418 99.9785 16.7063 99.9362 17.0575H98.8698C98.8909 16.2196 99.1617 15.6377 99.6823 15.3119C100.207 14.9818 100.814 14.8168 101.504 14.8168C102.304 14.8168 102.953 14.9691 103.453 15.2738C103.948 15.5785 104.195 16.0524 104.195 16.6957V20.6122C104.195 20.7307 104.219 20.8259 104.265 20.8978C104.316 20.9698 104.42 21.0057 104.576 21.0057C104.627 21.0057 104.684 21.0036 104.748 20.9994C104.811 20.9909 104.879 20.9803 104.951 20.9677V21.8119C104.773 21.8627 104.638 21.8944 104.545 21.9071C104.451 21.9198 104.325 21.9261 104.164 21.9261C103.77 21.9261 103.484 21.7865 103.307 21.5072C103.214 21.3591 103.148 21.1496 103.11 20.8788C102.877 21.1835 102.543 21.448 102.107 21.6722C101.671 21.8965 101.191 22.0087 100.666 22.0087C100.036 22.0087 99.5193 21.8182 99.1173 21.4374C98.7195 21.0523 98.5206 20.572 98.5206 19.9965C98.5206 19.3659 98.7174 18.8772 99.111 18.5302C99.5045 18.1831 100.021 17.9694 100.66 17.889L102.482 17.6605ZM106.798 18.4603C106.798 19.1882 106.952 19.7976 107.261 20.2885C107.57 20.7793 108.065 21.0248 108.747 21.0248C109.276 21.0248 109.709 20.7984 110.048 20.3456C110.391 19.8885 110.562 19.2347 110.562 18.3842C110.562 17.5251 110.387 16.8903 110.035 16.4799C109.684 16.0651 109.25 15.8578 108.734 15.8578C108.158 15.8578 107.691 16.0778 107.331 16.5179C106.976 16.958 106.798 17.6055 106.798 18.4603ZM108.518 14.8612C109.039 14.8612 109.475 14.9712 109.826 15.1913C110.029 15.3182 110.26 15.5404 110.518 15.8578V12.4237H111.616V21.7802H110.588V20.8344C110.321 21.2533 110.006 21.5559 109.642 21.7421C109.278 21.9283 108.861 22.0214 108.391 22.0214C107.634 22.0214 106.978 21.704 106.423 21.0692C105.869 20.4302 105.592 19.5817 105.592 18.5238C105.592 17.5336 105.844 16.6766 106.347 15.953C106.855 15.2251 107.579 14.8612 108.518 14.8612ZM117.805 19.9711C117.805 20.3011 117.925 20.5614 118.167 20.7518C118.408 20.9423 118.693 21.0375 119.024 21.0375C119.426 21.0375 119.815 20.9444 120.192 20.7582C120.826 20.4493 121.144 19.9436 121.144 19.2411V18.3207C121.004 18.4095 120.824 18.4836 120.604 18.5428C120.384 18.6021 120.168 18.6444 119.957 18.6698L119.265 18.7587C118.85 18.8137 118.539 18.9004 118.332 19.0189C117.98 19.2178 117.805 19.5352 117.805 19.9711ZM120.572 17.6605C120.835 17.6267 121.01 17.5166 121.099 17.3304C121.15 17.2289 121.175 17.0829 121.175 16.8925C121.175 16.5031 121.036 16.2217 120.756 16.0482C120.481 15.8705 120.086 15.7816 119.569 15.7816C118.973 15.7816 118.55 15.9424 118.3 16.264C118.16 16.4418 118.069 16.7063 118.027 17.0575H116.961C116.982 16.2196 117.253 15.6377 117.773 15.3119C118.298 14.9818 118.905 14.8168 119.595 14.8168C120.395 14.8168 121.044 14.9691 121.544 15.2738C122.039 15.5785 122.286 16.0524 122.286 16.6957V20.6122C122.286 20.7307 122.31 20.8259 122.356 20.8978C122.407 20.9698 122.511 21.0057 122.667 21.0057C122.718 21.0057 122.775 21.0036 122.839 20.9994C122.902 20.9909 122.97 20.9803 123.042 20.9677V21.8119C122.864 21.8627 122.728 21.8944 122.635 21.9071C122.542 21.9198 122.415 21.9261 122.255 21.9261C121.861 21.9261 121.575 21.7865 121.398 21.5072C121.304 21.3591 121.239 21.1496 121.201 20.8788C120.968 21.1835 120.634 21.448 120.198 21.6722C119.762 21.8965 119.282 22.0087 118.757 22.0087C118.126 22.0087 117.61 21.8182 117.208 21.4374C116.81 21.0523 116.611 20.572 116.611 19.9965C116.611 19.3659 116.808 18.8772 117.202 18.5302C117.595 18.1831 118.112 17.9694 118.751 17.889L120.572 17.6605ZM124.394 13.0839H125.549V14.9818H126.634V15.9149H125.549V20.3519C125.549 20.5889 125.629 20.7476 125.79 20.828C125.879 20.8746 126.027 20.8978 126.234 20.8978C126.29 20.8978 126.349 20.8978 126.412 20.8978C126.476 20.8936 126.55 20.8872 126.634 20.8788V21.7802C126.503 21.8182 126.366 21.8457 126.222 21.8627C126.082 21.8796 125.93 21.8881 125.765 21.8881C125.232 21.8881 124.87 21.7526 124.679 21.4818C124.489 21.2067 124.394 20.8513 124.394 20.4154V15.9149H123.473V14.9818H124.394V13.0839Z"
              fill="white"/>
    </g>
    <defs>
        <clipPath id="clip0_6612_44539">
            <rect width="180.233" height="60" fill="white" transform="translate(0.206543)"/>
        </clipPath>
    </defs>
</svg>
