<svg xmlns="http://www.w3.org/2000/svg" width="181" height="60" viewBox="0 0 181 60" fill="none">
    <path d="M172.159 0.394775H8.07408C3.82169 0.394775 0.394653 4.09992 0.394653 8.68425V51.3158C0.394653 55.8912 3.82169 59.6053 8.04717 59.6053H172.159C176.393 59.6053 179.821 55.8912 179.821 51.3158V8.68425C179.821 4.09992 176.393 0.394775 172.159 0.394775V0.394775Z"
          fill="#666666"/>
    <path d="M44.067 28.9863L34.0102 23.2357L28.1788 29.0671L34.7638 35.652L44.076 30.2154C44.1864 30.1552 44.2786 30.0664 44.3429 29.9582C44.4071 29.8501 44.441 29.7266 44.441 29.6008C44.441 29.4751 44.4071 29.3516 44.3429 29.2435C44.2786 29.1353 44.1864 29.0465 44.076 28.9863H44.067Z"
          fill="#F7CD46" stroke="#F7D047"/>
    <path d="M34.8265 23.6484L20.1675 15.2512C20.0772 15.2001 19.9752 15.1733 19.8714 15.1733C19.7676 15.1733 19.6657 15.2001 19.5753 15.2512C19.4855 15.3031 19.4109 15.3776 19.359 15.4674C19.307 15.5571 19.2795 15.6589 19.2793 15.7626V17.8081L29.9551 28.4839L34.8265 23.6484Z"
          fill="#6DEA82" stroke="#6DEA82"/>
    <path d="M19.2883 18.777C19.2883 23.2178 19.3601 33.9743 19.378 39.3392L29.6053 29.1029L19.2883 18.777Z"
          fill="#5ED2F9" stroke="#5ED1F9"/>
    <path d="M19.3779 40.3708V43.6543C19.3784 43.7592 19.4059 43.8622 19.4577 43.9533C19.5096 44.0445 19.5841 44.1207 19.674 44.1747C19.767 44.2273 19.8721 44.255 19.979 44.255C20.0859 44.255 20.191 44.2273 20.284 44.1747L35.6608 35.2034L30.1166 29.6053L19.3779 40.3708Z"
          fill="#E94B4D" stroke="#E94B4D"/>
    <path d="M60.2784 29.0577C61.6261 29.0577 62.7915 29.3182 63.7745 29.839C65.2003 30.5877 66.0727 31.8995 66.3917 33.7745H64.4679C64.2335 32.7264 63.7485 31.9646 63.0128 31.4894C62.2771 31.0076 61.3494 30.7667 60.2296 30.7667C58.9015 30.7667 57.7817 31.2648 56.8702 32.2609C55.9653 33.257 55.5128 34.7413 55.5128 36.714C55.5128 38.4197 55.8872 39.8097 56.6359 40.8839C57.3846 41.9516 58.6053 42.4855 60.298 42.4855C61.5935 42.4855 62.6645 42.1111 63.5109 41.3624C64.3637 40.6072 64.7999 39.3898 64.8195 37.7101H60.3273V36.0988H66.6261V43.7745H65.3761L64.9073 41.9288C64.2498 42.6515 63.6671 43.1528 63.1593 43.4327C62.3064 43.9145 61.2225 44.1554 59.9073 44.1554C58.2081 44.1554 56.7465 43.6053 55.5226 42.505C54.1879 41.1248 53.5206 39.2303 53.5206 36.8214C53.5206 34.4191 54.1717 32.5083 55.4738 31.089C56.7107 29.7348 58.3123 29.0577 60.2784 29.0577ZM73.5597 42.6417C74.7251 42.6417 75.5226 42.2023 75.9523 41.3234C76.3885 40.4379 76.6066 39.4549 76.6066 38.3741C76.6066 37.3976 76.4503 36.6033 76.1378 35.9913C75.643 35.0278 74.7902 34.546 73.5792 34.546C72.505 34.546 71.7238 34.9562 71.2355 35.7765C70.7472 36.5968 70.5031 37.5864 70.5031 38.7452C70.5031 39.8585 70.7472 40.7863 71.2355 41.5284C71.7238 42.2706 72.4985 42.6417 73.5597 42.6417ZM73.6281 33.0128C74.9757 33.0128 76.115 33.462 77.046 34.3605C77.977 35.2589 78.4425 36.5805 78.4425 38.3253C78.4425 40.0115 78.0323 41.4047 77.212 42.505C76.3917 43.6053 75.1189 44.1554 73.3937 44.1554C71.9549 44.1554 70.8123 43.6704 69.9659 42.7003C69.1196 41.7238 68.6964 40.4152 68.6964 38.7745C68.6964 37.0167 69.1424 35.617 70.0343 34.5753C70.9262 33.5337 72.1241 33.0128 73.6281 33.0128ZM84.6925 42.6417C85.8579 42.6417 86.6554 42.2023 87.0851 41.3234C87.5213 40.4379 87.7394 39.4549 87.7394 38.3741C87.7394 37.3976 87.5831 36.6033 87.2706 35.9913C86.7758 35.0278 85.923 34.546 84.712 34.546C83.6378 34.546 82.8566 34.9562 82.3683 35.7765C81.88 36.5968 81.6359 37.5864 81.6359 38.7452C81.6359 39.8585 81.88 40.7863 82.3683 41.5284C82.8566 42.2706 83.6313 42.6417 84.6925 42.6417ZM84.7609 33.0128C86.1085 33.0128 87.2478 33.462 88.1788 34.3605C89.1098 35.2589 89.5753 36.5805 89.5753 38.3253C89.5753 40.0115 89.1652 41.4047 88.3448 42.505C87.5245 43.6053 86.2517 44.1554 84.5265 44.1554C83.0877 44.1554 81.9451 43.6704 81.0988 42.7003C80.2524 41.7238 79.8292 40.4152 79.8292 38.7745C79.8292 37.0167 80.2752 35.617 81.1671 34.5753C82.059 33.5337 83.257 33.0128 84.7609 33.0128ZM95.3663 33.13C96.1866 33.13 96.9028 33.3318 97.5148 33.7355C97.8468 33.9633 98.1853 34.2954 98.5304 34.7316V33.4132H100.151V42.9249C100.151 44.2531 99.9562 45.3012 99.5656 46.0695C98.8364 47.4887 97.4594 48.1984 95.4347 48.1984C94.3084 48.1984 93.3611 47.9445 92.5929 47.4366C91.8247 46.9353 91.395 46.1476 91.3038 45.0734H93.0909C93.1756 45.5421 93.3448 45.9034 93.5988 46.1573C93.9959 46.548 94.6209 46.7433 95.4738 46.7433C96.8214 46.7433 97.7036 46.268 98.1202 45.3175C98.3676 44.7576 98.4816 43.7583 98.462 42.3195C98.1105 42.8533 97.6873 43.2504 97.1925 43.5109C96.6977 43.7713 96.0434 43.9015 95.2296 43.9015C94.0968 43.9015 93.104 43.5011 92.2511 42.7003C91.4047 41.893 90.9816 40.5616 90.9816 38.7062C90.9816 36.9549 91.408 35.5877 92.2609 34.6046C93.1202 33.6215 94.1554 33.13 95.3663 33.13ZM98.5304 38.5011C98.5304 37.2055 98.2635 36.2452 97.7296 35.6202C97.1958 34.9952 96.5154 34.6827 95.6886 34.6827C94.4516 34.6827 93.6053 35.2622 93.1495 36.421C92.9087 37.0395 92.7882 37.8501 92.7882 38.8527C92.7882 40.031 93.0258 40.9295 93.5011 41.548C93.9829 42.16 94.6274 42.4659 95.4347 42.4659C96.6977 42.4659 97.5864 41.8963 98.1007 40.757C98.3872 40.1124 98.5304 39.3605 98.5304 38.5011ZM102.857 29.4288H104.614V43.7745H102.857V29.4288ZM111.616 33.0812C112.359 33.0812 113.078 33.257 113.775 33.6085C114.471 33.9536 115.002 34.4028 115.366 34.9562C115.718 35.4835 115.952 36.0988 116.069 36.8019C116.174 37.2837 116.226 38.0519 116.226 39.1066H108.56C108.592 40.1678 108.843 41.0206 109.312 41.6652C109.78 42.3032 110.506 42.6222 111.489 42.6222C112.407 42.6222 113.14 42.3195 113.687 41.714C113.999 41.3624 114.22 40.9555 114.351 40.4933H116.079C116.034 40.8774 115.881 41.3071 115.62 41.7823C115.366 42.2511 115.08 42.6352 114.761 42.9347C114.227 43.4555 113.566 43.8071 112.778 43.9894C112.355 44.0935 111.877 44.1456 111.343 44.1456C110.041 44.1456 108.937 43.6736 108.032 42.7296C107.127 41.7791 106.675 40.451 106.675 38.7452C106.675 37.0656 107.131 35.7016 108.042 34.6534C108.954 33.6053 110.145 33.0812 111.616 33.0812ZM114.419 37.7101C114.347 36.9484 114.181 36.3396 113.921 35.8839C113.439 35.0376 112.635 34.6144 111.509 34.6144C110.702 34.6144 110.025 34.9073 109.478 35.4933C108.931 36.0727 108.641 36.8116 108.609 37.7101H114.419ZM124.38 29.4288H130.835C132.111 29.4288 133.14 29.7902 133.921 30.5128C134.702 31.229 135.093 32.2381 135.093 33.5402C135.093 34.66 134.745 35.6365 134.048 36.4698C133.351 37.2967 132.28 37.7101 130.835 37.7101H126.323V43.7745H124.38V29.4288ZM133.13 33.5499C133.13 32.4952 132.739 31.7791 131.958 31.4015C131.528 31.1997 130.939 31.0988 130.191 31.0988H126.323V36.0695H130.191C131.063 36.0695 131.769 35.8839 132.31 35.5128C132.857 35.1417 133.13 34.4874 133.13 33.5499ZM137.349 29.4288H139.107V43.7745H137.349V29.4288ZM143.101 40.9913C143.101 41.4991 143.286 41.8995 143.657 42.1925C144.028 42.4855 144.468 42.632 144.976 42.632C145.594 42.632 146.193 42.4887 146.773 42.2023C147.749 41.727 148.237 40.949 148.237 39.8683V38.4523C148.023 38.589 147.746 38.7029 147.407 38.7941C147.069 38.8852 146.737 38.9503 146.411 38.9894L145.347 39.1261C144.709 39.2107 144.23 39.3442 143.911 39.5265C143.371 39.8325 143.101 40.3208 143.101 40.9913ZM147.359 37.4366C147.762 37.3846 148.032 37.2153 148.169 36.9288C148.247 36.7726 148.286 36.548 148.286 36.255C148.286 35.656 148.071 35.2231 147.642 34.9562C147.219 34.6827 146.61 34.546 145.816 34.546C144.898 34.546 144.247 34.7934 143.862 35.2882C143.648 35.5616 143.508 35.9685 143.443 36.5089H141.802C141.834 35.2198 142.251 34.3247 143.052 33.8234C143.859 33.3156 144.793 33.0616 145.855 33.0616C147.085 33.0616 148.084 33.296 148.853 33.7648C149.614 34.2335 149.995 34.9627 149.995 35.9523V41.9777C149.995 42.16 150.031 42.3064 150.103 42.4171C150.181 42.5278 150.34 42.5831 150.581 42.5831C150.659 42.5831 150.747 42.5799 150.845 42.5734C150.943 42.5603 151.047 42.5441 151.157 42.5245V43.8234C150.884 43.9015 150.676 43.9503 150.532 43.9698C150.389 43.9894 150.194 43.9991 149.946 43.9991C149.341 43.9991 148.901 43.7843 148.628 43.3546C148.485 43.1267 148.384 42.8045 148.325 42.3878C147.967 42.8566 147.453 43.2635 146.782 43.6085C146.112 43.9536 145.373 44.1261 144.566 44.1261C143.595 44.1261 142.801 43.8331 142.183 43.2472C141.571 42.6547 141.265 41.9158 141.265 41.0304C141.265 40.0603 141.568 39.3084 142.173 38.7745C142.778 38.2407 143.573 37.9119 144.556 37.7882L147.359 37.4366ZM159.419 33.3156H161.362C161.115 33.9861 160.565 35.5161 159.712 37.9054C159.074 39.7023 158.54 41.1671 158.11 42.2999C157.095 44.9692 156.379 46.5968 155.962 47.1827C155.545 47.7687 154.829 48.0616 153.814 48.0616C153.566 48.0616 153.374 48.0519 153.237 48.0323C153.107 48.0128 152.944 47.977 152.749 47.9249V46.3234C153.055 46.408 153.276 46.4601 153.413 46.4796C153.55 46.4991 153.67 46.5089 153.775 46.5089C154.1 46.5089 154.338 46.4536 154.487 46.3429C154.644 46.2387 154.774 46.1085 154.878 45.9523C154.911 45.9002 155.028 45.6333 155.23 45.1515C155.431 44.6697 155.578 44.3116 155.669 44.0773L151.802 33.3156H153.794L156.597 41.8312L159.419 33.3156Z"
          fill="white"/>
    <path d="M58.9183 21.0405C59.3457 21.0405 59.697 20.9961 59.972 20.9072C60.4629 20.7422 60.8649 20.4248 61.1781 19.9551C61.4278 19.5785 61.6076 19.096 61.7177 18.5078C61.7811 18.1566 61.8129 17.8307 61.8129 17.5303C61.8129 16.375 61.5822 15.4779 61.121 14.8389C60.6639 14.1999 59.9255 13.8804 58.9056 13.8804H56.6649V21.0405H58.9183ZM55.3954 12.7949H59.1722C60.4545 12.7949 61.4489 13.2498 62.1556 14.1597C62.7862 14.9806 63.1014 16.0322 63.1014 17.3145C63.1014 18.3047 62.9152 19.1997 62.5428 19.9995C61.8869 21.4129 60.7592 22.1196 59.1595 22.1196H55.3954V12.7949ZM67.2782 21.3833C68.0357 21.3833 68.5541 21.0977 68.8334 20.5264C69.1169 19.9508 69.2587 19.3118 69.2587 18.6094C69.2587 17.9746 69.1571 17.4583 68.954 17.0605C68.6324 16.4342 68.078 16.1211 67.2909 16.1211C66.5927 16.1211 66.0848 16.3877 65.7675 16.9209C65.4501 17.4541 65.2914 18.0973 65.2914 18.8506C65.2914 19.5742 65.4501 20.1772 65.7675 20.6597C66.0848 21.1421 66.5884 21.3833 67.2782 21.3833ZM67.3226 15.1245C68.1986 15.1245 68.9392 15.4165 69.5443 16.0005C70.1495 16.5845 70.452 17.4435 70.452 18.5776C70.452 19.6737 70.1854 20.5793 69.6522 21.2944C69.119 22.0096 68.2917 22.3672 67.1703 22.3672C66.2351 22.3672 65.4924 22.0519 64.9423 21.4214C64.3921 20.7866 64.1171 19.936 64.1171 18.8696C64.1171 17.7271 64.4069 16.8172 64.9867 16.1401C65.5664 15.4631 66.3451 15.1245 67.3226 15.1245ZM72.3436 15.3213L73.6512 20.6787L74.9779 15.3213H76.2601L77.5931 20.647L78.9833 15.3213H80.1259L78.1517 22.1196H76.9647L75.5809 16.8574L74.2416 22.1196H73.0546L71.0931 15.3213H72.3436ZM81.2113 15.3213H82.2968V16.2861C82.6184 15.8883 82.959 15.6027 83.3187 15.4292C83.6784 15.2557 84.0783 15.1689 84.5184 15.1689C85.4833 15.1689 86.135 15.5054 86.4735 16.1782C86.6597 16.5464 86.7528 17.0732 86.7528 17.7588V22.1196H85.5912V17.835C85.5912 17.4202 85.5298 17.0859 85.4071 16.832C85.204 16.4089 84.8358 16.1973 84.3026 16.1973C84.0318 16.1973 83.8096 16.2248 83.6361 16.2798C83.323 16.3729 83.0479 16.5591 82.8109 16.8384C82.6205 17.0627 82.4956 17.2954 82.4364 17.5366C82.3814 17.7736 82.3539 18.1143 82.3539 18.5586V22.1196H81.2113V15.3213ZM88.4794 12.7949H89.6219V22.1196H88.4794V12.7949ZM94.0399 21.3833C94.7974 21.3833 95.3158 21.0977 95.5951 20.5264C95.8786 19.9508 96.0204 19.3118 96.0204 18.6094C96.0204 17.9746 95.9188 17.4583 95.7157 17.0605C95.3941 16.4342 94.8397 16.1211 94.0526 16.1211C93.3544 16.1211 92.8466 16.3877 92.5292 16.9209C92.2118 17.4541 92.0531 18.0973 92.0531 18.8506C92.0531 19.5742 92.2118 20.1772 92.5292 20.6597C92.8466 21.1421 93.3501 21.3833 94.0399 21.3833ZM94.0844 15.1245C94.9603 15.1245 95.7009 15.4165 96.306 16.0005C96.9112 16.5845 97.2137 17.4435 97.2137 18.5776C97.2137 19.6737 96.9471 20.5793 96.4139 21.2944C95.8807 22.0096 95.0534 22.3672 93.932 22.3672C92.9968 22.3672 92.2541 22.0519 91.704 21.4214C91.1538 20.7866 90.8788 19.936 90.8788 18.8696C90.8788 17.7271 91.1687 16.8172 91.7484 16.1401C92.3282 15.4631 93.1068 15.1245 94.0844 15.1245ZM99.4545 20.3105C99.4545 20.6406 99.5751 20.9009 99.8163 21.0913C100.057 21.2817 100.343 21.377 100.673 21.377C101.075 21.377 101.465 21.2839 101.841 21.0977C102.476 20.7887 102.793 20.283 102.793 19.5806V18.6602C102.654 18.749 102.474 18.8231 102.254 18.8823C102.034 18.9416 101.818 18.9839 101.606 19.0093L100.914 19.0981C100.5 19.1532 100.189 19.2399 99.9813 19.3584C99.6301 19.5573 99.4545 19.8747 99.4545 20.3105ZM102.222 18C102.484 17.9661 102.66 17.8561 102.749 17.6699C102.8 17.5684 102.825 17.4224 102.825 17.2319C102.825 16.8426 102.685 16.5612 102.406 16.3877C102.131 16.21 101.735 16.1211 101.219 16.1211C100.622 16.1211 100.199 16.2819 99.9496 16.6035C99.8099 16.7812 99.719 17.0457 99.6766 17.397H98.6102C98.6314 16.5591 98.9022 15.9772 99.4227 15.6514C99.9475 15.3213 100.555 15.1562 101.245 15.1562C102.044 15.1562 102.694 15.3086 103.193 15.6133C103.688 15.918 103.936 16.3919 103.936 17.0352V20.9517C103.936 21.0701 103.959 21.1654 104.006 21.2373C104.057 21.3092 104.16 21.3452 104.317 21.3452C104.368 21.3452 104.425 21.3431 104.488 21.3389C104.552 21.3304 104.619 21.3198 104.691 21.3071V22.1514C104.514 22.2021 104.378 22.2339 104.285 22.2466C104.192 22.2593 104.065 22.2656 103.904 22.2656C103.511 22.2656 103.225 22.126 103.047 21.8467C102.954 21.6986 102.889 21.4891 102.85 21.2183C102.618 21.5229 102.283 21.7874 101.848 22.0117C101.412 22.236 100.931 22.3481 100.407 22.3481C99.7761 22.3481 99.2598 22.1577 98.8578 21.7769C98.46 21.3918 98.2611 20.9115 98.2611 20.3359C98.2611 19.7054 98.4579 19.2166 98.8514 18.8696C99.245 18.5226 99.7613 18.3089 100.4 18.2285L102.222 18ZM106.538 18.7998C106.538 19.5277 106.693 20.137 107.002 20.6279C107.311 21.1188 107.806 21.3643 108.487 21.3643C109.016 21.3643 109.45 21.1379 109.788 20.6851C110.131 20.228 110.303 19.5742 110.303 18.7236C110.303 17.8646 110.127 17.2298 109.776 16.8193C109.425 16.4046 108.991 16.1973 108.474 16.1973C107.899 16.1973 107.431 16.4173 107.072 16.8574C106.716 17.2975 106.538 17.945 106.538 18.7998ZM108.259 15.2007C108.779 15.2007 109.215 15.3107 109.566 15.5308C109.769 15.6577 110 15.8799 110.258 16.1973V12.7632H111.356V22.1196H110.328V21.1738C110.061 21.5928 109.746 21.8953 109.382 22.0815C109.018 22.2677 108.601 22.3608 108.132 22.3608C107.374 22.3608 106.718 22.0435 106.164 21.4087C105.61 20.7697 105.332 19.9212 105.332 18.8633C105.332 17.873 105.584 17.0161 106.088 16.2925C106.596 15.5646 107.319 15.2007 108.259 15.2007ZM117.545 20.3105C117.545 20.6406 117.666 20.9009 117.907 21.0913C118.148 21.2817 118.434 21.377 118.764 21.377C119.166 21.377 119.555 21.2839 119.932 21.0977C120.567 20.7887 120.884 20.283 120.884 19.5806V18.6602C120.745 18.749 120.565 18.8231 120.345 18.8823C120.125 18.9416 119.909 18.9839 119.697 19.0093L119.005 19.0981C118.591 19.1532 118.28 19.2399 118.072 19.3584C117.721 19.5573 117.545 19.8747 117.545 20.3105ZM120.313 18C120.575 17.9661 120.751 17.8561 120.84 17.6699C120.891 17.5684 120.916 17.4224 120.916 17.2319C120.916 16.8426 120.776 16.5612 120.497 16.3877C120.222 16.21 119.826 16.1211 119.31 16.1211C118.713 16.1211 118.29 16.2819 118.04 16.6035C117.901 16.7812 117.81 17.0457 117.767 17.397H116.701C116.722 16.5591 116.993 15.9772 117.514 15.6514C118.038 15.3213 118.646 15.1562 119.335 15.1562C120.135 15.1562 120.785 15.3086 121.284 15.6133C121.779 15.918 122.027 16.3919 122.027 17.0352V20.9517C122.027 21.0701 122.05 21.1654 122.097 21.2373C122.147 21.3092 122.251 21.3452 122.408 21.3452C122.458 21.3452 122.516 21.3431 122.579 21.3389C122.642 21.3304 122.71 21.3198 122.782 21.3071V22.1514C122.604 22.2021 122.469 22.2339 122.376 22.2466C122.283 22.2593 122.156 22.2656 121.995 22.2656C121.601 22.2656 121.316 22.126 121.138 21.8467C121.045 21.6986 120.979 21.4891 120.941 21.2183C120.709 21.5229 120.374 21.7874 119.938 22.0117C119.502 22.236 119.022 22.3481 118.497 22.3481C117.867 22.3481 117.351 22.1577 116.949 21.7769C116.551 21.3918 116.352 20.9115 116.352 20.3359C116.352 19.7054 116.549 19.2166 116.942 18.8696C117.336 18.5226 117.852 18.3089 118.491 18.2285L120.313 18ZM124.134 13.4233H125.289V15.3213H126.375V16.2544H125.289V20.6914C125.289 20.9284 125.37 21.0871 125.531 21.1675C125.62 21.214 125.768 21.2373 125.975 21.2373C126.03 21.2373 126.089 21.2373 126.153 21.2373C126.216 21.2331 126.29 21.2267 126.375 21.2183V22.1196C126.244 22.1577 126.106 22.1852 125.962 22.2021C125.823 22.2191 125.67 22.2275 125.505 22.2275C124.972 22.2275 124.61 22.0921 124.42 21.8213C124.229 21.5462 124.134 21.1908 124.134 20.7549V16.2544H123.214V15.3213H124.134V13.4233Z"
          fill="white"/>
</svg>
