<svg version="1.1" xmlns="http://www.w3.org/2000/svg" viewBox="0 0 30 30" fill="#ffffff">
  <path d="M15 11.014a3.986 3.986 0 1 0 .001 7.971A3.986 3.986 0 0 0 15 11.014zm0 6.592A2.604 2.604 0 0 1 12.393 15 2.604 2.604 0 0 1 15 12.394 2.614 2.614 0 0 1 17.607 15 2.604 2.604 0 0 1 15 17.606zM19.385 9.556a.915.915 0 0 0-.92.921c0 .512.407.919.92.919a.914.914 0 0 0 .921-.919.916.916 0 0 0-.921-.921z"></path>
  <path d="M15.002.15C6.798.15.149 6.797.149 15c0 8.201 6.649 14.85 14.853 14.85 8.199 0 14.85-6.648 14.85-14.85 0-8.203-6.651-14.85-14.85-14.85zm7.664 18.115c0 2.423-1.979 4.401-4.416 4.401h-6.5c-2.438 0-4.417-1.979-4.417-4.386v-6.546c0-2.422 1.978-4.4 4.417-4.4h6.5c2.438 0 4.416 1.978 4.416 4.4v6.531z"></path>
</svg>