<svg version="1.1" xmlns="http://www.w3.org/2000/svg" viewBox="-615 1477 48 48" fill="#ffffff">
  <path d="M-566.999 1501c0 13.256-10.746 24-24 24-13.256 0-24.002-10.744-24.002-24 0-13.254 10.746-24 24.002-24 13.254 0 24 10.746 24 24zm-38.507 13.975h6.22v-20.004h-6.22v20.004zm3.11-22.739a3.606 3.606 0 0 0 0-7.211 3.603 3.603 0 0 0-3.604 3.605 3.604 3.604 0 0 0 3.604 3.606zm26.396 11.766c0-5.387-1.163-9.529-7.454-9.529-3.023 0-5.054 1.658-5.884 3.231h-.085v-2.733h-5.964v20.004h6.216v-9.896c0-2.609.493-5.137 3.729-5.137 3.186 0 3.232 2.984 3.232 5.305v9.729h6.21v-10.974z"></path>
</svg>