<svg width="320" height="320" viewBox="0 0 320 320" fill="none" xmlns="http://www.w3.org/2000/svg">
<path d="M132.301 164.691L127.342 151.324C127.14 150.778 126.367 150.778 126.164 151.324L121.206 164.692C121.171 164.787 121.159 164.889 121.172 164.99C121.185 165.09 121.222 165.186 121.28 165.269C121.338 165.352 121.415 165.42 121.505 165.467C121.594 165.514 121.694 165.539 121.796 165.539H131.712C131.813 165.539 131.913 165.514 132.003 165.467C132.093 165.42 132.17 165.352 132.228 165.269C132.285 165.186 132.322 165.09 132.335 164.989C132.348 164.889 132.336 164.787 132.301 164.692M134.592 172.204H118.916C118.788 172.204 118.662 172.244 118.557 172.317C118.452 172.39 118.372 172.494 118.327 172.614L115.241 180.931C115.196 181.052 115.116 181.155 115.01 181.228C114.905 181.302 114.78 181.341 114.652 181.341H107.857C107.755 181.341 107.654 181.316 107.563 181.268C107.472 181.219 107.395 181.15 107.337 181.065C107.279 180.98 107.244 180.882 107.233 180.78C107.222 180.677 107.236 180.574 107.274 180.479L122.917 141.511C122.964 141.394 123.044 141.294 123.148 141.224C123.252 141.154 123.375 141.117 123.501 141.117H130.006C130.263 141.117 130.493 141.273 130.589 141.511L146.232 180.478C146.27 180.574 146.285 180.677 146.274 180.779C146.263 180.882 146.227 180.98 146.169 181.065C146.112 181.15 146.034 181.22 145.943 181.268C145.853 181.316 145.751 181.341 145.649 181.341H138.855C138.727 181.341 138.602 181.302 138.497 181.229C138.391 181.155 138.311 181.052 138.266 180.931L135.18 172.614C135.135 172.494 135.055 172.39 134.95 172.317C134.844 172.244 134.719 172.204 134.591 172.204M149.415 154.793H155.226C155.393 154.793 155.553 154.859 155.671 154.977C155.788 155.095 155.855 155.254 155.855 155.421V180.713C155.855 180.879 155.788 181.039 155.671 181.157C155.553 181.275 155.393 181.341 155.226 181.341H149.415C149.248 181.341 149.089 181.275 148.971 181.157C148.853 181.039 148.787 180.879 148.787 180.713V155.421C148.787 155.254 148.853 155.094 148.971 154.976C149.089 154.858 149.248 154.793 149.415 154.793ZM177.048 160.945C177.048 161.112 176.982 161.271 176.864 161.389C176.747 161.507 176.587 161.573 176.42 161.573H176.244C173.371 161.573 171.263 162.263 169.923 163.642C168.581 165.021 167.912 167.301 167.912 170.48V180.713C167.912 180.879 167.846 181.039 167.728 181.157C167.61 181.275 167.45 181.341 167.283 181.341H161.529C161.363 181.341 161.203 181.275 161.085 181.157C160.967 181.039 160.901 180.879 160.901 180.713V155.421C160.901 155.254 160.967 155.094 161.085 154.976C161.203 154.858 161.363 154.792 161.529 154.792H167.226C167.392 154.792 167.552 154.858 167.67 154.976C167.788 155.094 167.854 155.254 167.854 155.421V160.423H167.969C168.659 158.355 169.75 156.766 171.245 155.654C172.739 154.543 174.578 153.987 176.761 153.987H177.048V160.945ZM192.938 160.711C192.771 160.711 192.611 160.777 192.494 160.895C192.376 161.013 192.31 161.173 192.31 161.339V171.859C192.31 172.932 192.519 173.698 192.941 174.158C193.362 174.617 194.09 174.847 195.125 174.847H195.703C195.87 174.847 196.03 174.914 196.147 175.031C196.265 175.149 196.332 175.309 196.332 175.476V180.77C196.332 180.936 196.265 181.096 196.147 181.214C196.03 181.332 195.87 181.398 195.703 181.398H193.228C190.662 181.398 188.689 180.737 187.31 179.416C185.93 178.094 185.241 176.131 185.241 173.526V161.339C185.241 161.173 185.175 161.013 185.057 160.895C184.939 160.777 184.779 160.711 184.612 160.711H180.985C180.818 160.711 180.658 160.645 180.541 160.527C180.423 160.409 180.357 160.249 180.357 160.083V155.421C180.357 155.254 180.423 155.094 180.541 154.976C180.658 154.858 180.818 154.792 180.985 154.792H184.613C184.779 154.792 184.939 154.726 185.057 154.608C185.175 154.49 185.241 154.331 185.241 154.164V144.79C185.241 144.623 185.307 144.463 185.425 144.345C185.543 144.228 185.703 144.161 185.87 144.161H191.681C191.847 144.161 192.007 144.228 192.125 144.345C192.243 144.463 192.309 144.623 192.309 144.79V154.164C192.309 154.331 192.375 154.49 192.493 154.608C192.611 154.726 192.771 154.792 192.937 154.792H197.14C197.306 154.792 197.466 154.858 197.584 154.976C197.702 155.094 197.768 155.254 197.768 155.421V160.083C197.768 160.25 197.702 160.41 197.584 160.527C197.466 160.645 197.306 160.712 197.14 160.712L192.938 160.711ZM219.548 173.468C220.869 172.089 221.53 170.289 221.53 168.066C221.53 165.845 220.869 164.044 219.548 162.665C218.226 161.286 216.492 160.596 214.347 160.596C212.201 160.596 210.469 161.286 209.147 162.665C207.825 164.044 207.164 165.845 207.164 168.066C207.164 170.289 207.825 172.089 209.147 173.468C210.469 174.847 212.201 175.537 214.347 175.537C216.492 175.537 218.226 174.847 219.548 173.468ZM206.13 180.536C204.176 179.426 202.634 177.807 201.504 175.681C200.374 173.555 199.809 171.017 199.809 168.066C199.809 165.117 200.374 162.579 201.504 160.453C202.634 158.327 204.176 156.709 206.13 155.597C208.084 154.486 210.229 153.931 212.566 153.931C214.634 153.931 216.406 154.333 217.882 155.137C219.356 155.941 220.534 157.072 221.415 158.528H221.53V155.421C221.53 155.254 221.596 155.094 221.714 154.976C221.832 154.858 221.992 154.792 222.158 154.792H227.912C228.079 154.792 228.239 154.858 228.357 154.976C228.474 155.094 228.541 155.254 228.541 155.421V180.712C228.541 180.879 228.474 181.039 228.357 181.157C228.239 181.274 228.079 181.341 227.912 181.341H222.158C221.992 181.341 221.832 181.274 221.714 181.157C221.596 181.039 221.53 180.879 221.53 180.712V177.606H221.415C220.534 179.062 219.356 180.192 217.881 180.996C216.406 181.8 214.635 182.202 212.566 182.202C210.229 182.202 208.084 181.647 206.13 180.536ZM252.47 173.468C253.792 172.089 254.453 170.289 254.453 168.066C254.453 165.845 253.792 164.044 252.47 162.665C251.149 161.286 249.415 160.596 247.27 160.596C245.124 160.596 243.391 161.286 242.07 162.665C240.748 164.044 240.087 165.845 240.087 168.066C240.087 170.289 240.748 172.089 242.07 173.468C243.391 174.847 245.124 175.537 247.27 175.537C249.415 175.537 251.149 174.847 252.47 173.468ZM243.736 180.996C242.261 180.192 241.083 179.062 240.202 177.606H240.087V180.712C240.087 180.879 240.021 181.039 239.903 181.157C239.785 181.274 239.625 181.341 239.458 181.341H233.647C233.481 181.341 233.321 181.274 233.203 181.157C233.085 181.039 233.019 180.879 233.019 180.712V141.744C233.019 141.577 233.085 141.417 233.203 141.3C233.321 141.182 233.481 141.115 233.647 141.115H239.458C239.625 141.115 239.785 141.182 239.903 141.3C240.021 141.417 240.087 141.577 240.087 141.744V158.527H240.202C241.083 157.072 242.261 155.941 243.736 155.137C245.211 154.332 246.983 153.93 249.052 153.93C251.388 153.93 253.534 154.486 255.487 155.597C257.441 156.708 258.983 158.326 260.113 160.452C261.243 162.579 261.809 165.118 261.809 168.067C261.809 171.017 261.243 173.555 260.114 175.681C258.983 177.807 257.442 179.426 255.488 180.536C253.534 181.647 251.388 182.203 249.052 182.203C246.983 182.203 245.211 181.801 243.736 180.996M271.6 181.341H265.789C265.622 181.341 265.462 181.275 265.344 181.157C265.226 181.039 265.16 180.879 265.16 180.713V141.745C265.16 141.578 265.226 141.419 265.344 141.301C265.462 141.183 265.622 141.117 265.789 141.117H271.6C271.766 141.117 271.926 141.183 272.044 141.301C272.162 141.419 272.228 141.578 272.228 141.745V180.713C272.228 180.879 272.162 181.039 272.044 181.157C271.926 181.275 271.766 181.341 271.6 181.341ZM285.308 160.941C284.344 161.693 283.693 162.778 283.357 164.197C283.264 164.589 283.569 164.964 283.972 164.964H295.031C295.415 164.964 295.716 164.62 295.654 164.242C295.433 162.899 294.858 161.829 293.927 161.028C292.835 160.089 291.408 159.62 289.646 159.62C287.883 159.62 286.437 160.061 285.308 160.941ZM299.472 157.637C301.732 160.109 302.863 163.605 302.863 168.124V168.875C302.863 169.042 302.796 169.201 302.679 169.319C302.561 169.437 302.401 169.503 302.234 169.503H283.758C283.666 169.503 283.575 169.524 283.492 169.563C283.409 169.602 283.335 169.658 283.276 169.729C283.216 169.799 283.173 169.882 283.149 169.971C283.125 170.059 283.121 170.152 283.136 170.243C283.432 171.922 284.174 173.256 285.365 174.244C286.724 175.375 288.439 175.94 290.508 175.94C293.179 175.94 295.651 174.897 297.924 172.812C298.201 172.558 298.642 172.612 298.857 172.921L301.682 176.976C301.771 177.102 301.81 177.257 301.792 177.41C301.774 177.563 301.701 177.704 301.586 177.807C300.199 179.02 298.657 180.045 297.001 180.853C295.162 181.752 292.998 182.203 290.508 182.203C287.635 182.203 285.125 181.618 282.98 180.45C280.834 179.282 279.168 177.635 277.981 175.508C276.793 173.382 276.199 170.921 276.199 168.124C276.199 165.328 276.774 162.858 277.923 160.712C279.072 158.567 280.681 156.9 282.75 155.712C284.819 154.525 287.232 153.931 289.991 153.931C294.05 153.931 297.211 155.167 299.472 157.637ZM156.614 145.442C156.614 147.813 154.692 149.734 152.322 149.734C149.95 149.734 148.029 147.813 148.029 145.442C148.029 143.071 149.951 141.15 152.322 141.15C154.692 141.15 156.614 143.072 156.614 145.442Z" fill="#333333"/>
<path d="M51.0943 129.783L23.4627 141.216C21.9261 141.852 21.942 144.035 23.4882 144.648L51.2351 155.651C53.673 156.618 56.388 156.618 58.8258 155.651L86.5731 144.648C88.1189 144.035 88.1357 141.853 86.5983 141.217L58.9674 129.782C56.4466 128.739 53.6148 128.739 51.0939 129.782" fill="#FCB400"/>
<path d="M57.4924 161.659V189.147C57.4924 190.454 58.8108 191.35 60.026 190.868L90.9445 178.867C91.2894 178.73 91.5852 178.493 91.7936 178.186C92.002 177.879 92.1134 177.517 92.1133 177.146V149.658C92.1133 148.351 90.795 147.456 89.5797 147.938L58.6612 159.939C58.3164 160.075 58.0207 160.313 57.8123 160.619C57.6039 160.926 57.4925 161.288 57.4924 161.659Z" fill="#18BFFF"/>
<path d="M50.2724 163.078L41.0965 167.508L40.1648 167.959L20.795 177.24C19.5676 177.832 18 176.937 18 175.573V149.774C18 149.28 18.253 148.854 18.5923 148.534C18.7316 148.395 18.8895 148.277 19.0615 148.182C19.524 147.904 20.1842 147.83 20.7456 148.052L50.1183 159.69C51.6113 160.283 51.7286 162.374 50.2724 163.078Z" fill="#F82B60"/>
<path d="M50.2724 163.078L41.0965 167.508L18.5923 148.533C18.7316 148.395 18.8895 148.277 19.0615 148.182C19.524 147.904 20.1842 147.83 20.7456 148.052L50.1183 159.69C51.6113 160.283 51.7286 162.374 50.2724 163.078Z" fill="black" fill-opacity="0.25"/>
</svg>
