<svg width="320" height="320" viewBox="0 0 320 320" fill="none" xmlns="http://www.w3.org/2000/svg">
<path fill-rule="evenodd" clip-rule="evenodd" d="M60.2016 121.879C61.6143 121.063 63.5967 120.909 66.2557 121.769C68.9143 122.629 72.0173 124.44 75.3671 127.162C76.6541 128.208 77.9645 129.378 79.2862 130.663C76.5257 133.649 73.7763 137.053 71.1255 140.799C66.5557 141.222 62.2328 141.901 58.2666 142.798C57.8147 141.011 57.4566 139.292 57.1943 137.654C56.5114 133.392 56.4954 129.8 57.0798 127.067C57.6644 124.334 58.7888 122.694 60.2016 121.879ZM78.0111 123.909C79.3982 125.036 80.802 126.29 82.2109 127.66C83.6197 126.29 85.0234 125.036 86.4103 123.909C89.9925 120.998 93.5519 118.856 96.8754 117.781C100.199 116.706 103.518 116.633 106.316 118.249C109.114 119.864 110.711 122.775 111.441 126.191C112.172 129.606 112.097 133.76 111.367 138.318C111.084 140.082 110.7 141.925 110.218 143.83C112.109 144.365 113.897 144.954 115.566 145.591C119.879 147.238 123.513 149.25 126.106 151.59C128.699 153.931 130.421 156.769 130.421 160C130.421 163.231 128.699 166.069 126.106 168.409C123.513 170.75 119.879 172.762 115.566 174.408C113.897 175.046 112.109 175.635 110.218 176.17C110.7 178.075 111.084 179.918 111.367 181.682C112.097 186.24 112.172 190.394 111.441 193.809C110.711 197.225 109.114 200.136 106.316 201.751C103.518 203.367 100.199 203.294 96.8756 202.219C93.5521 201.144 89.9927 199.002 86.4105 196.091C85.0235 194.964 83.6198 193.71 82.2109 192.34C80.8019 193.71 79.3981 194.964 78.011 196.091C74.4288 199.003 70.8694 201.144 67.5459 202.219C64.2227 203.294 60.9033 203.367 58.1053 201.752C55.3073 200.136 53.7107 197.225 52.9802 193.81C52.2496 190.394 52.3244 186.241 53.0547 181.683C53.3374 179.918 53.7213 178.075 54.2032 176.17C52.3124 175.635 50.5248 175.046 48.8551 174.408C44.5426 172.762 40.9084 170.75 38.3155 168.409C35.7228 166.069 34 163.231 34 160C34 156.769 35.7228 153.931 38.3155 151.59C40.9084 149.25 44.5426 147.238 48.8551 145.591C50.5248 144.954 52.3124 144.365 54.2032 143.83C53.7213 141.925 53.3376 140.082 53.0548 138.317C52.3246 133.759 52.2497 129.606 52.9803 126.19C53.7109 122.775 55.3075 119.864 58.1055 118.248C60.9034 116.633 64.2228 116.706 67.546 117.781C70.8695 118.856 74.4289 120.997 78.0111 123.909ZM76.5957 140.423C78.4504 137.975 80.3332 135.718 82.2109 133.675C84.0886 135.718 85.9714 137.976 87.8261 140.423C85.9829 140.339 84.109 140.296 82.2107 140.296C80.3125 140.296 78.4387 140.339 76.5957 140.423ZM59.413 146.837C62.1208 146.233 65.0176 145.731 68.0649 145.348C67.0705 146.903 66.0961 148.504 65.1469 150.148C64.1978 151.792 63.2982 153.437 62.4494 155.075C61.2569 152.244 60.243 149.485 59.413 146.837ZM68.7775 152.245C67.2749 154.847 65.9058 157.442 64.6737 160C65.9058 162.558 67.275 165.153 68.7776 167.755C70.2803 170.358 71.8428 172.841 73.4422 175.187C76.2738 175.399 79.2055 175.511 82.2107 175.511C85.2161 175.511 88.1479 175.399 90.9795 175.187C92.5789 172.841 94.1413 170.358 95.6438 167.756C97.1465 165.153 98.5158 162.558 99.748 160C98.5158 157.442 97.1466 154.847 95.644 152.244C94.1413 149.642 92.5788 147.158 90.9793 144.812C88.1477 144.6 85.216 144.488 82.2107 144.488C79.2055 144.488 76.2739 144.6 73.4424 144.812C71.8429 147.158 70.2802 149.642 68.7775 152.245ZM55.3418 147.864C56.5475 151.748 58.1209 155.831 60.0399 160C58.121 164.169 56.5475 168.252 55.3418 172.135C53.5682 171.633 51.8998 171.083 50.3505 170.492C46.3178 168.952 43.1988 167.17 41.1246 165.297C39.0502 163.425 38.1922 161.631 38.1922 160C38.1922 158.368 39.0502 156.575 41.1246 154.702C43.1988 152.83 46.3178 151.047 50.3505 149.508C51.8998 148.916 53.5682 148.366 55.3418 147.864ZM62.4494 164.925C61.2569 167.755 60.243 170.515 59.413 173.162C62.1207 173.767 65.0175 174.269 68.0647 174.651C67.0704 173.097 66.0962 171.496 65.1471 169.852C64.1979 168.208 63.2983 166.563 62.4494 164.925ZM57.1941 182.346C57.4565 180.708 57.8146 178.988 58.2666 177.201C62.2327 178.099 66.5555 178.778 71.1253 179.2C73.7762 182.947 76.5256 186.351 79.2862 189.337C77.9644 190.622 76.654 191.792 75.3669 192.838C72.0172 195.561 68.9141 197.371 66.2555 198.231C63.5966 199.091 61.6142 198.937 60.2014 198.121C58.7886 197.306 57.6642 195.666 57.0797 192.933C56.4952 190.2 56.5113 186.608 57.1941 182.346ZM89.0545 192.838C87.7676 191.792 86.4573 190.622 85.1357 189.337C87.8962 186.351 90.6456 182.947 93.2964 179.2C97.8662 178.778 102.189 178.099 106.155 177.201C106.607 178.988 106.965 180.708 107.227 182.346C107.91 186.608 107.926 190.2 107.342 192.933C106.757 195.665 105.633 197.305 104.22 198.121C102.807 198.937 100.825 199.09 98.1659 198.23C95.5073 197.37 92.4043 195.56 89.0545 192.838ZM82.2109 186.324C84.0886 184.282 85.9716 182.024 87.8263 179.576C85.9831 179.66 84.1091 179.703 82.2107 179.703C80.3124 179.703 78.4385 179.66 76.5954 179.576C78.4502 182.024 80.3331 184.282 82.2109 186.324ZM105.009 173.162C102.301 173.767 99.4042 174.269 96.357 174.651C97.3512 173.097 98.3254 171.496 99.2744 169.852C100.224 168.208 101.123 166.563 101.972 164.925C103.165 167.755 104.179 170.515 105.009 173.162ZM109.08 172.135C107.874 168.252 106.301 164.169 104.382 160C106.301 155.831 107.874 151.748 109.08 147.864C110.853 148.366 112.522 148.916 114.071 149.508C118.104 151.047 121.223 152.83 123.297 154.702C125.371 156.575 126.229 158.368 126.229 160C126.229 161.631 125.371 163.425 123.297 165.297C121.223 167.17 118.104 168.952 114.071 170.492C112.522 171.083 110.853 171.633 109.08 172.135ZM93.2962 140.799C97.866 141.222 102.189 141.901 106.155 142.798C106.607 141.011 106.965 139.292 107.227 137.654C107.91 133.392 107.926 129.8 107.342 127.067C106.757 124.335 105.633 122.695 104.22 121.879C102.807 121.063 100.825 120.91 98.1658 121.77C95.5072 122.63 92.4041 124.44 89.0544 127.162C87.7675 128.208 86.4573 129.378 85.1357 130.663C87.8961 133.649 90.6454 137.053 93.2962 140.799ZM101.972 155.075C103.165 152.244 104.179 149.485 105.009 146.837C102.301 146.233 99.4041 145.731 96.3568 145.348C97.3511 146.903 98.3254 148.504 99.2745 150.148C100.224 151.792 101.123 153.436 101.972 155.075ZM82.2106 168.594C86.957 168.594 90.8047 164.746 90.8047 160C90.8047 155.254 86.957 151.406 82.2106 151.406C77.4643 151.406 73.6166 155.254 73.6166 160C73.6166 164.746 77.4643 168.594 82.2106 168.594ZM166.342 165.927L176.809 181.741L171.111 181.711L161.228 166.305H153.496V181.711H148.67V142.938H164.248C171.342 142.938 176.399 147.498 176.399 154.624C176.399 161.627 171.632 165.46 166.342 165.927ZM153.498 162.091H163.671V162.096C168.263 162.096 171.403 159.012 171.403 154.651C171.403 150.289 168.266 147.267 163.671 147.267H153.498V162.091ZM205.936 178.136C203.145 180.925 199.368 182.436 194.773 182.436L194.771 182.414C186.458 182.414 180.47 176.451 180.47 167.671C180.47 159.533 186.281 152.963 194.304 152.963C202.793 152.963 207.794 159.592 207.794 168.02V169.126H185.065C185.414 174.414 189.137 178.832 195.181 178.832C198.378 178.832 201.631 177.554 203.843 175.286L205.936 178.136ZM185.068 165.924H203.496C203.437 161.737 200.648 156.563 194.252 156.563C188.262 156.563 185.301 161.624 185.068 165.924ZM236.751 162.438V181.738L232.395 181.733V178.539C230.07 181.097 226.871 182.434 223.092 182.434C218.32 182.434 213.263 179.235 213.263 173.131C213.263 166.853 218.325 163.887 223.092 163.887C226.93 163.887 230.127 165.108 232.395 167.725V162.669C232.395 158.889 229.37 156.739 225.301 156.739C221.93 156.739 219.195 157.961 216.696 160.634L214.661 157.612C217.684 154.471 221.286 152.96 225.881 152.96C231.812 152.96 236.751 155.636 236.751 162.438ZM217.743 173.192C217.743 176.741 220.593 179.296 224.662 179.296C227.743 179.296 230.709 178.134 232.395 175.809V170.519C230.707 168.192 227.743 167.03 224.662 167.03C220.593 167.03 217.743 169.588 217.743 173.192ZM268.124 177.554C265.972 180.343 262.949 182.436 257.833 182.436V182.417C249.462 182.417 243.823 176.045 243.823 167.674C243.823 159.361 249.462 152.965 257.833 152.965C262.949 152.965 265.974 155.056 268.124 157.848L265.217 160.521C263.382 157.966 260.998 156.86 258.091 156.86C252.106 156.86 248.386 161.452 248.386 167.671C248.386 173.89 252.103 178.542 258.091 178.542C260.974 178.542 263.357 177.379 265.217 174.881L268.124 177.554ZM286.557 180.635C285.452 181.679 283.879 182.436 281.324 182.436V182.441C277.196 182.441 275.102 180.058 275.102 175.871V157.499H270.451V153.661H275.102V145.987H279.464V153.661H285.164V157.496H279.464V174.937C279.464 177.031 280.397 178.542 282.314 178.542C283.56 178.542 284.697 178.018 285.28 177.379L286.557 180.635Z" fill="#00D8FF"/>
</svg>
