<svg class="t-sociallinks__svg" version="1.1" id="Layer_1" xmlns="http://www.w3.org/2000/svg" x="0px" y="0px"
     width="48px" height="48px" viewBox="0 0 48 48" enable-background="new 0 0 48 48" xml:space="preserve">
    <path style="fill:#f5914f;" d="M8.99402 37.97V38.47H9.49402H15.714H16.214V37.97V17.9659V17.4659H15.714H9.49402H8.99402V17.9659V37.97ZM26.077 19.2614V17.969V17.469H25.577H19.613H19.113V17.969V37.973V38.473H19.613H25.829H26.329V37.973V28.077C26.329 26.7816 26.4561 25.6098 26.9179 24.7713C27.1424 24.3639 27.4438 24.0395 27.8525 23.8131C28.2641 23.585 28.814 23.4399 29.558 23.4399C30.2745 23.4399 30.7691 23.6067 31.1207 23.8523C31.4735 24.0988 31.7253 24.4547 31.9038 24.906C32.2721 25.8373 32.29 27.0626 32.29 28.245V37.974V38.474H32.79H39H39.5V37.974V27C39.5 24.2955 39.2136 21.7867 38.0551 19.9487C36.8633 18.0579 34.8148 16.9709 31.546 16.9709C29.0885 16.9709 27.2261 18.003 26.077 19.2614ZM47.501 24C47.501 36.9798 36.9789 47.5 24.001 47.5C11.0211 47.5 0.499023 36.9798 0.499023 24C0.499023 11.0222 11.0211 0.5 24.001 0.5C36.9788 0.5 47.501 11.0261 47.501 24ZM12.604 15.74C14.8675 15.74 16.706 13.9008 16.706 11.634C16.706 9.36816 14.8674 7.52905 12.604 7.52905C10.3344 7.52905 8.5 9.36834 8.5 11.634C8.5 13.8952 10.3339 15.74 12.604 15.74Z"></path>
</svg>
