<svg class="t-sociallinks__svg" width="48px" height="48px" viewBox="0 0 100 100" fill="none"
     xmlns="http://www.w3.org/2000/svg">
    <path fill-rule="evenodd" clip-rule="evenodd"
          d="M50 100c27.614 0 50-22.386 50-50S77.614 0 50 0 0 22.386 0 50s22.386 50 50 50Zm17.9-67.374c3.838.346 6 2.695 6.474 6.438.332 2.612.626 6.352.626 10.375 0 7.064-.626 11.148-.626 11.148-.588 3.728-2.39 5.752-6.18 6.18-4.235.48-13.76.7-17.992.7-4.38 0-13.237-.184-17.66-.552-3.8-.317-6.394-2.44-6.916-6.218-.38-2.752-.626-6.022-.626-11.222 0-5.788.209-8.238.7-10.853.699-3.732 2.48-5.54 6.548-5.96C36.516 32.221 40.55 32 49.577 32c4.413 0 13.927.228 18.322.626Zm-23.216 9.761v14.374L58.37 49.5l-13.686-7.114Z"
          fill="#f5914f"></path>
</svg>
